<?xml version="1.0" encoding="utf-8"?>
<!-- Generator: Adobe Illustrator 28.7.4, SVG Export Plug-In . SVG Version: 9.03 Build 55973)  -->
<svg version="1.0" id="레이어_1" xmlns="http://www.w3.org/2000/svg" xmlns:xlink="http://www.w3.org/1999/xlink" x="0px"
	 y="0px" viewBox="0 0 18 18" style="enable-background:new 0 0 18 18;" xml:space="preserve">
<style type="text/css">
	.st0{fill:#222222;}
</style>
<path class="st0" d="M15.1,16.4L12,13.3c-1.1,0.8-2.4,1.3-3.9,1.3c-3.6,0-6.5-2.9-6.5-6.5c0-3.6,2.9-6.5,6.5-6.5
	c3.6,0,6.5,2.9,6.5,6.5c0,1.5-0.5,2.8-1.3,3.9l3.1,3.1L15.1,16.4z M8.1,3.4c-2.6,0-4.7,2.1-4.7,4.7c0,2.6,2.1,4.7,4.7,4.7
	c1.2,0,2.3-0.5,3.2-1.2l0.3-0.3c0.8-0.8,1.2-1.9,1.2-3.2C12.8,5.5,10.7,3.4,8.1,3.4L8.1,3.4z"/>
</svg>
